<svg width="30" height="30" viewBox="0 0 30 30" fill="none" xmlns="http://www.w3.org/2000/svg">
<g clip-path="url(#clip0_360_2)">
<path d="M15.8839 4.54494C15.6495 4.3106 15.3316 4.17896 15.0002 4.17896C14.6687 4.17896 14.3508 4.3106 14.1164 4.54494L7.04518 11.6162C6.9258 11.7315 6.83057 11.8694 6.76506 12.0219C6.69955 12.1744 6.66506 12.3385 6.66362 12.5044C6.66218 12.6704 6.69381 12.835 6.75666 12.9886C6.81951 13.1423 6.91233 13.2818 7.02969 13.3992C7.14706 13.5165 7.28662 13.6094 7.44024 13.6722C7.59386 13.7351 7.75846 13.7667 7.92444 13.7653C8.09041 13.7638 8.25443 13.7293 8.40694 13.6638C8.55944 13.5983 8.69738 13.5031 8.81268 13.3837L13.7502 8.44619V24.9999C13.7502 25.3315 13.8819 25.6494 14.1163 25.8838C14.3507 26.1182 14.6687 26.2499 15.0002 26.2499C15.3317 26.2499 15.6496 26.1182 15.8841 25.8838C16.1185 25.6494 16.2502 25.3315 16.2502 24.9999V8.44619L21.1877 13.3837C21.4234 13.6114 21.7392 13.7374 22.0669 13.7345C22.3947 13.7317 22.7082 13.6002 22.94 13.3685C23.1717 13.1367 23.3032 12.8232 23.306 12.4954C23.3089 12.1677 23.1829 11.8519 22.9552 11.6162L15.8839 4.54494Z" fill="white"/>
</g>
<defs>
<clipPath id="clip0_360_2">
<rect width="30" height="30" fill="white"/>
</clipPath>
</defs>
</svg>
